# File created by Blade
# Date/Time:  Fri Jan 16 15:45:56 2015
#---------------------------------------------------------
:version 1.10
:name HOM
:units
  mass 1.0
  length 1.000000
  angle deg
:documentation
     Acclaim Skeleton File
:root
   axis xyz
   order TX TY TZ RX RY RZ
   position 0.000000 0.000000 0.000000
   orientation 0 0 0
:bonedata
   begin
      id 1
      name Spine_dum
      direction 0.000000 1.000000 0.000000
      length 7.170412
      axis 0.0 0.0 0.0 xyz
   end
   begin
      id 2
      name LeftUpLeg_dum
      direction 1.000000 0.000000 0.000000
      length 4.318350
      axis 0.0 0.0 0.0 xyz
   end
   begin
      id 3
      name RightUpLeg_dum
      direction -1.000000 0.000000 0.000000
      length 4.318350
      axis 0.0 0.0 0.0 xyz
   end
   begin
      id 4
      name Spine
      direction 0.000000 1.000000 0.000000
      length 0.000000
      axis 0.0 0.0 0.0 xyz
      dof rx ry rz
   end
   begin
      id 5
      name Spine_dum1
      direction 0.000000 1.000000 0.000000
      length 14.276153
      axis 0.0 0.0 0.0 xyz
   end
   begin
      id 6
      name Spine_dum2
      direction 0.000000 1.000000 0.000000
      length 10.718243
      axis 0.0 0.0 0.0 xyz
   end
   begin
      id 7
      name Spine_dum3
      direction 0.000000 1.000000 0.000000
      length 10.718243
      axis 0.0 0.0 0.0 xyz
   end
   begin
      id 8
      name Head
      direction 0.000000 1.000000 0.000000
      length 4.527550
      axis 0.0 0.0 0.0 xyz
      dof rx ry rz
   end
   begin
      id 9
      name LeftShoulder
      direction 1.000000 0.000000 0.000000
      length 7.058872
      axis 0.0 0.0 -90.0 xyz
      dof rx ry rz
   end
   begin
      id 10
      name LeftArm
      direction 1.000000 0.000000 0.000000
      length 10.955525
      axis 0.0 0.0 -90.0 xyz
      dof rx ry rz
   end
   begin
      id 11
      name LeftForeArm
      direction 1.000000 0.000000 0.000000
      length 8.193716
      axis 0.0 0.0 -90.0 xyz
      dof ry rz rx
   end
   begin
      id 12
      name LeftHand
      direction 0.000000 0.000000 0.000000
      length 0.000000
      axis 0.0 0.0 -90.0 xyz
      dof rx ry rz
   end
   begin
      id 13
      name LeftHand_dum1
      direction 0.000000 0.000000 0.000000
      length 0.000000
      axis 0.0 0.0 -90.0 xyz
   end
   begin
      id 14
      name LeftHand_dum2
      direction 1.000000 0.000000 0.000000
      length 3.937000
      axis 0.0 0.0 -90.0 xyz
   end
   begin
      id 15
      name LeftHandThumb1
      direction 0.000000 0.000000 1.000000
      length 3.937000
      axis 0.0 0.0 -90.0 xyz
      dof rx rz ry
   end
   begin
      id 16
      name RightShoulder
      direction -1.000000 0.000000 0.000000
      length 7.058872
      axis 0.0 0.0 90.0 xyz
      dof rx ry rz
   end
   begin
      id 17
      name RightArm
      direction -1.000000 0.000000 0.000000
      length 10.955525
      axis 0.0 0.0 90.0 xyz
      dof rx ry rz
   end
   begin
      id 18
      name RightForeArm
      direction -1.000000 0.000000 0.000000
      length 8.193716
      axis 0.0 0.0 90.0 xyz
      dof ry rz rx
   end
   begin
      id 19
      name RightHand
      direction 0.000000 0.000000 0.000000
      length 0.000000
      axis 0.0 0.0 90.0 xyz
      dof rx ry rz
   end
   begin
      id 20
      name RightHand_dum1
      direction 0.000000 0.000000 0.000000
      length 0.000000
      axis 0.0 0.0 90.0 xyz
   end
   begin
      id 21
      name RightHand_dum2
      direction -1.000000 0.000000 0.000000
      length 3.937000
      axis 0.0 0.0 90.0 xyz
   end
   begin
      id 22
      name RightHandThumb1
      direction 0.000000 0.000000 1.000000
      length 3.937000
      axis 0.0 0.0 90.0 xyz
      dof rx rz ry
   end
   begin
      id 23
      name LeftUpLeg
      direction 0.000000 -1.000000 0.000000
      length 17.323638
      axis 0.0 0.0 0.0 xyz
      dof rx ry rz
   end
   begin
      id 24
      name LeftLeg
      direction 0.000000 -1.000000 0.000000
      length 16.270368
      axis 0.0 0.0 0.0 xyz
      dof rx ry rz
   end
   begin
      id 25
      name LeftFoot
      direction 0.000000 -0.258819 0.965926
      length 4.922846
      axis 15.0 0.0 0.0 xyz
      dof rx ry rz
   end
   begin
      id 26
      name LeftToeBase
      direction 0.000000 0.000000 1.000000
      length 2.952750
      axis 0.0 0.0 0.0 xyz
      dof rx ry rz
   end
   begin
      id 27
      name RightUpLeg
      direction 0.000000 -1.000000 0.000000
      length 17.323638
      axis 0.0 0.0 0.0 xyz
      dof rx ry rz
   end
   begin
      id 28
      name RightLeg
      direction 0.000000 -1.000000 0.000000
      length 16.270368
      axis 0.0 0.0 0.0 xyz
      dof rx ry rz
   end
   begin
      id 29
      name RightFoot
      direction 0.000000 -0.258819 0.965926
      length 4.922846
      axis 15.0 0.0 0.0 xyz
      dof rx ry rz
   end
   begin
      id 30
      name RightToeBase
      direction 0.000000 0.000000 1.000000
      length 2.952750
      axis 0.0 0.0 0.0 xyz
      dof rx ry rz
   end
:hierarchy
   begin
      root Spine_dum LeftUpLeg_dum RightUpLeg_dum
      Spine_dum Spine
      LeftUpLeg_dum LeftUpLeg
      RightUpLeg_dum RightUpLeg
      Spine Spine_dum1 Spine_dum2 Spine_dum3
      Spine_dum1 Head
      Spine_dum2 LeftShoulder
      Spine_dum3 RightShoulder
      LeftShoulder LeftArm
      LeftArm LeftForeArm
      LeftForeArm LeftHand
      LeftHand LeftHand_dum1 LeftHand_dum2
      LeftHand_dum1 LeftHandThumb1
      RightShoulder RightArm
      RightArm RightForeArm
      RightForeArm RightHand
      RightHand RightHand_dum1 RightHand_dum2
      RightHand_dum1 RightHandThumb1
      LeftUpLeg LeftLeg
      LeftLeg LeftFoot
      LeftFoot LeftToeBase
      RightUpLeg RightLeg
      RightLeg RightFoot
      RightFoot RightToeBase
   end

# File created by Blade
# Date/Time:  Fri Jan 16 15:45:48 2015
# Frame Rate: 120.000 fps
#------------------------------------------------------
:FULLY-SPECIFIED
:DEGREES
1929
root -5.418407 35.302604 -9.901851 -1.345251 2.363969 -3.045549
Spine -2.781430 -1.583889 3.253598
Head -5.722403 -12.294403 -5.237709
LeftShoulder -18.594933 10.341421 -17.432182
LeftArm 20.197875 17.499380 -66.029876
LeftForeArm 14.990187 0.000000 13.359706
LeftHand 2.595573 0.000000 -8.315422
LeftHandThumb1 -26.253704 0.000000 33.147579
RightShoulder -9.216914 27.305579 -50.774869
RightArm 41.197948 49.572890 13.565960
RightForeArm 10.518916 -0.000000 42.946346
RightHand 7.486718 -0.000000 -17.870375
RightHandThumb1 -24.326973 -0.000000 -32.862282
LeftUpLeg 9.538737 11.181226 4.554066
LeftLeg -8.788096 -0.000000 0.000000
LeftFoot -12.996582 21.943570 -11.291898
LeftToeBase 21.180831 -0.000000 -0.000000
RightUpLeg 9.349027 -9.734288 -0.642008
RightLeg -4.693459 -0.000000 0.000000
RightFoot -6.422542 -27.582392 7.005832
RightToeBase 12.504750 -0.000000 -0.000000
1930
root -5.421013 35.301973 -9.899319 -1.359277 2.453811 -3.045569
Spine -2.756624 -1.526114 3.206953
Head -5.781868 -12.508421 -5.131610
LeftShoulder -18.545777 10.345789 -17.393840
LeftArm 20.175725 17.468965 -66.049412
LeftForeArm 14.981378 0.000000 13.373680
LeftHand 2.562751 0.000000 -8.323534
LeftHandThumb1 -26.253704 0.000000 33.147579
RightShoulder -9.320253 27.419772 -50.856288
RightArm 41.925883 50.308477 14.432554
RightForeArm 11.585183 -0.000000 41.651235
RightHand 7.268723 -0.000000 -18.415047
RightHandThumb1 -24.326973 -0.000000 -32.862282
LeftUpLeg 9.539176 11.139843 4.558911
LeftLeg -8.793352 -0.000000 0.000000
LeftFoot -12.990375 21.913078 -11.290072
LeftToeBase 21.218297 -0.000000 -0.000000
RightUpLeg 9.379550 -9.786569 -0.639984
RightLeg -4.692662 -0.000000 0.000000
RightFoot -6.447916 -27.611830 7.041925
RightToeBase 12.497177 -0.000000 -0.000000
1931
root -5.423316 35.301425 -9.898012 -1.360131 2.535491 -3.040068
Spine -2.745590 -1.461562 3.146923
Head -5.840784 -12.697356 -5.015276
LeftShoulder -18.512508 10.343646 -17.353885
LeftArm 20.170013 17.446408 -66.062876
LeftForeArm 14.943834 0.000000 13.357386
LeftHand 2.566605 -0.000000 -8.353855
LeftHandThumb1 -26.253704 0.000000 33.147579
RightShoulder -9.405723 27.544607 -50.901058
RightArm 42.683742 51.040907 15.312131
RightForeArm 12.455197 -0.000000 40.367949
RightHand 7.518426 -0.000000 -18.578115
RightHandThumb1 -24.326973 -0.000000 -32.862282
LeftUpLeg 9.523997 11.081704 4.555476
LeftLeg -8.788249 -0.000000 0.000000
LeftFoot -12.966485 21.892844 -11.263997
LeftToeBase 21.181689 -0.000000 -0.000000
RightUpLeg 9.390983 -9.833525 -0.641409
RightLeg -4.685854 -0.000000 0.000000
RightFoot -6.470582 -27.643940 7.040084
RightToeBase 12.524393 -0.000000 -0.000000
1932
root -5.425482 35.300497 -9.896623 -1.364949 2.623152 -3.035819
Spine -2.732469 -1.414618 3.090558
Head -5.886487 -12.865711 -4.911802
LeftShoulder -18.476929 10.342222 -17.315898
LeftArm 20.162476 17.426507 -66.077973
LeftForeArm 14.919849 0.000000 13.327157
LeftHand 2.553744 -0.000000 -8.360029
LeftHandThumb1 -26.253704 0.000000 33.147579
RightShoulder -9.420615 27.704083 -50.916158
RightArm 43.408623 51.792603 16.149361
RightForeArm 13.478360 -0.000000 39.145851
RightHand 7.265089 0.000000 -19.273444
RightHandThumb1 -24.326973 -0.000000 -32.862282
LeftUpLeg 9.519095 11.016857 4.554363
LeftLeg -8.800670 -0.000000 0.000000
LeftFoot -12.949231 21.879139 -11.227236
LeftToeBase 21.207220 -0.000000 -0.000000
RightUpLeg 9.416328 -9.871501 -0.641651
RightLeg -4.697534 -0.000000 0.000000
RightFoot -6.489518 -27.690156 7.035015
RightToeBase 12.556539 -0.000000 -0.000000
1933
root -5.428177 35.300625 -9.895663 -1.366676 2.713867 -3.030537
Spine -2.725127 -1.376725 3.046649
Head -5.877822 -12.929848 -4.838038
LeftShoulder -18.429298 10.337282 -17.295056
LeftArm 20.146490 17.424084 -66.064177
LeftForeArm 14.971799 0.000000 13.313865
LeftHand 2.371275 -0.000000 -8.703264
LeftHandThumb1 -26.253704 0.000000 33.147579
RightShoulder -9.572520 27.991547 -51.029358
RightArm 44.567398 52.497551 17.610408
RightForeArm 14.327621 -0.000000 38.028491
RightHand 7.345478 0.000000 -19.434983
RightHandThumb1 -24.326973 -0.000000 -32.862282
LeftUpLeg 9.506895 10.933756 4.551868
LeftLeg -8.806365 -0.000000 0.000000
LeftFoot -12.930643 21.850488 -11.255406
LeftToeBase 21.190460 -0.000000 -0.000000
RightUpLeg 9.434712 -9.930317 -0.642413
RightLeg -4.700967 -0.000000 0.000000
RightFoot -6.499773 -27.703422 7.038238
RightToeBase 12.499891 -0.000000 -0.000000
1934
root -5.430698 35.298738 -9.893565 -1.369586 2.781488 -3.030176
Spine -2.713720 -1.318349 2.984706
Head -5.930633 -13.083551 -4.728866
LeftShoulder -18.419724 10.326621 -17.245557
LeftArm 20.160273 17.445075 -66.073351
LeftForeArm 14.964189 -0.000000 13.275937
LeftHand 2.310776 0.000000 -8.835325
LeftHandThumb1 -26.253704 0.000000 33.147579
RightShoulder -9.538999 28.094457 -51.063589
RightArm 45.415778 53.432643 18.832321
RightForeArm 15.285883 -0.000000 37.054468
RightHand 7.358081 -0.000000 -19.731928
RightHandThumb1 -24.326973 -0.000000 -32.862282
LeftUpLeg 9.504187 10.885516 4.555518
LeftLeg -8.816785 -0.000000 0.000000
LeftFoot -12.924727 21.839155 -11.216951
LeftToeBase 21.235211 -0.000000 -0.000000
RightUpLeg 9.455961 -9.946815 -0.636002
RightLeg -4.710566 -0.000000 0.000000
RightFoot -6.521210 -27.763945 7.033383
RightToeBase 12.559032 -0.000000 -0.000000
